<?xml version="1.0" encoding="us-ascii" standalone="no"?><svg xmlns="http://www.w3.org/2000/svg" xmlns:xlink="http://www.w3.org/1999/xlink" contentStyleType="text/css" height="625px" preserveAspectRatio="none" style="width:438px;height:625px;background:#FFFFFF;" version="1.1" viewBox="0 0 438 625" width="438px" zoomAndPan="magnify"><defs/><g><text fill="#000000" font-family="sans-serif" font-size="14" font-weight="bold" lengthAdjust="spacing" textLength="252" x="91.75" y="32.9951">Stepts to play - Activity Diagram</text><ellipse cx="162.5" cy="57.2969" fill="#222222" rx="10" ry="10" style="stroke:#222222;stroke-width:1.0;"/><rect fill="#F1F1F1" height="33.9688" rx="12.5" ry="12.5" style="stroke:#181818;stroke-width:0.5;" width="128" x="98.5" y="131.2969"/><text fill="#000000" font-family="sans-serif" font-size="12" lengthAdjust="spacing" textLength="108" x="108.5" y="152.4355">add Yellow Token</text><rect fill="#F1F1F1" height="33.9688" rx="12.5" ry="12.5" style="stroke:#181818;stroke-width:0.5;" width="114" x="105.5" y="192.7656"/><text fill="#000000" font-family="sans-serif" font-size="12" lengthAdjust="spacing" textLength="94" x="115.5" y="213.9043">add Red Token</text><polygon fill="#F1F1F1" points="162.5,87.2969,174.5,99.2969,162.5,111.2969,150.5,99.2969,162.5,87.2969" style="stroke:#181818;stroke-width:0.5;"/><polygon fill="#F1F1F1" points="48.5,246.7344,276.5,246.7344,288.5,258.7344,276.5,270.7344,48.5,270.7344,36.5,258.7344,48.5,246.7344" style="stroke:#181818;stroke-width:0.5;"/><text fill="#000000" font-family="sans-serif" font-size="11" lengthAdjust="spacing" textLength="20" x="166.5" y="280.9448">yes</text><text fill="#000000" font-family="sans-serif" font-size="11" lengthAdjust="spacing" textLength="228" x="48.5" y="262.5425">are there 3 yellow tokens on the board?</text><text fill="#000000" font-family="sans-serif" font-size="11" lengthAdjust="spacing" textLength="14" x="288.5" y="256.1401">no</text><rect fill="#F1F1F1" height="33.9688" rx="12.5" ry="12.5" style="stroke:#181818;stroke-width:0.5;" width="86" x="119.5" y="302.4448"/><text fill="#000000" font-family="sans-serif" font-size="12" lengthAdjust="spacing" textLength="66" x="129.5" y="323.5835">add Yellow</text><polygon fill="#F1F1F1" points="97,417.2183,228,417.2183,240,429.2183,228,441.2183,97,441.2183,85,429.2183,97,417.2183" style="stroke:#181818;stroke-width:0.5;"/><text fill="#000000" font-family="sans-serif" font-size="11" lengthAdjust="spacing" textLength="131" x="97" y="433.0264">Is the board complete?</text><text fill="#000000" font-family="sans-serif" font-size="11" lengthAdjust="spacing" textLength="20" x="65" y="426.624">yes</text><text fill="#000000" font-family="sans-serif" font-size="11" lengthAdjust="spacing" textLength="14" x="240" y="426.624">no</text><rect fill="#F1F1F1" height="33.9688" rx="12.5" ry="12.5" style="stroke:#181818;stroke-width:0.5;" width="36" x="57" y="451.2183"/><text fill="#000000" font-family="sans-serif" font-size="12" lengthAdjust="spacing" textLength="16" x="67" y="472.3569">tie</text><ellipse cx="75" cy="519.687" fill="none" rx="11" ry="11" style="stroke:#222222;stroke-width:1.0;"/><ellipse cx="75" cy="519.687" fill="#222222" rx="6" ry="6" style="stroke:#222222;stroke-width:1.0;"/><rect fill="#F1F1F1" height="33.9688" rx="12.5" ry="12.5" style="stroke:#181818;stroke-width:0.5;" width="72" x="214" y="451.2183"/><text fill="#000000" font-family="sans-serif" font-size="12" lengthAdjust="spacing" textLength="52" x="224" y="472.3569">add Red</text><rect fill="#F1F1F1" height="33.9688" rx="12.5" ry="12.5" style="stroke:#181818;stroke-width:0.5;" width="86" x="207" y="557.0894"/><text fill="#000000" font-family="sans-serif" font-size="12" lengthAdjust="spacing" textLength="66" x="217" y="578.228">add Yellow</text><polygon fill="#F1F1F1" points="166.5,508.687,333.5,508.687,345.5,520.687,333.5,532.687,166.5,532.687,154.5,520.687,166.5,508.687" style="stroke:#181818;stroke-width:0.5;"/><text fill="#000000" font-family="sans-serif" font-size="11" lengthAdjust="spacing" textLength="14" x="254" y="542.8975">no</text><text fill="#000000" font-family="sans-serif" font-size="11" lengthAdjust="spacing" textLength="167" x="166.5" y="524.4951">Is it connect4 for red tokens?</text><text fill="#000000" font-family="sans-serif" font-size="11" lengthAdjust="spacing" textLength="20" x="345.5" y="518.0928">yes</text><ellipse cx="387.5" cy="520.687" fill="none" rx="11" ry="11" style="stroke:#222222;stroke-width:1.0;"/><ellipse cx="387.5" cy="520.687" fill="#222222" rx="6" ry="6" style="stroke:#222222;stroke-width:1.0;"/><polygon fill="#F1F1F1" points="71,356.4136,254,356.4136,266,368.4136,254,380.4136,71,380.4136,59,368.4136,71,356.4136" style="stroke:#181818;stroke-width:0.5;"/><text fill="#000000" font-family="sans-serif" font-size="11" lengthAdjust="spacing" textLength="14" x="166.5" y="390.624">no</text><text fill="#000000" font-family="sans-serif" font-size="11" lengthAdjust="spacing" textLength="183" x="71" y="372.2217">Is it connect4 for yellow tokens?</text><text fill="#000000" font-family="sans-serif" font-size="11" lengthAdjust="spacing" textLength="20" x="39" y="365.8193">yes</text><ellipse cx="24" cy="415.4136" fill="none" rx="11" ry="11" style="stroke:#222222;stroke-width:1.0;"/><ellipse cx="24" cy="415.4136" fill="#222222" rx="6" ry="6" style="stroke:#222222;stroke-width:1.0;"/><line style="stroke:#181818;stroke-width:1.0;" x1="162.5" x2="162.5" y1="165.2656" y2="192.7656"/><polygon fill="#181818" points="158.5,182.7656,162.5,192.7656,166.5,182.7656,162.5,186.7656" style="stroke:#181818;stroke-width:1.0;"/><line style="stroke:#181818;stroke-width:1.0;" x1="162.5" x2="162.5" y1="111.2969" y2="131.2969"/><polygon fill="#181818" points="158.5,121.2969,162.5,131.2969,166.5,121.2969,162.5,125.2969" style="stroke:#181818;stroke-width:1.0;"/><line style="stroke:#181818;stroke-width:1.0;" x1="288.5" x2="300.5" y1="258.7344" y2="258.7344"/><polygon fill="#181818" points="296.5,185.2656,300.5,175.2656,304.5,185.2656,300.5,181.2656" style="stroke:#181818;stroke-width:1.0;"/><line style="stroke:#181818;stroke-width:1.0;" x1="300.5" x2="300.5" y1="99.2969" y2="258.7344"/><line style="stroke:#181818;stroke-width:1.0;" x1="300.5" x2="174.5" y1="99.2969" y2="99.2969"/><polygon fill="#181818" points="184.5,95.2969,174.5,99.2969,184.5,103.2969,180.5,99.2969" style="stroke:#181818;stroke-width:1.0;"/><line style="stroke:#181818;stroke-width:1.0;" x1="162.5" x2="162.5" y1="226.7344" y2="246.7344"/><polygon fill="#181818" points="158.5,236.7344,162.5,246.7344,166.5,236.7344,162.5,240.7344" style="stroke:#181818;stroke-width:1.0;"/><line style="stroke:#181818;stroke-width:1.0;" x1="162.5" x2="162.5" y1="67.2969" y2="87.2969"/><polygon fill="#181818" points="158.5,77.2969,162.5,87.2969,166.5,77.2969,162.5,81.2969" style="stroke:#181818;stroke-width:1.0;"/><line style="stroke:#181818;stroke-width:1.0;" x1="162.5" x2="162.5" y1="270.7344" y2="302.4448"/><polygon fill="#181818" points="158.5,292.4448,162.5,302.4448,166.5,292.4448,162.5,296.4448" style="stroke:#181818;stroke-width:1.0;"/><line style="stroke:#181818;stroke-width:1.0;" x1="75" x2="75" y1="485.187" y2="508.687"/><polygon fill="#181818" points="71,498.687,75,508.687,79,498.687,75,502.687" style="stroke:#181818;stroke-width:1.0;"/><line style="stroke:#181818;stroke-width:1.0;" x1="250" x2="250" y1="532.687" y2="557.0894"/><polygon fill="#181818" points="246,547.0894,250,557.0894,254,547.0894,250,551.0894" style="stroke:#181818;stroke-width:1.0;"/><line style="stroke:#181818;stroke-width:1.0;" x1="345.5" x2="376.5" y1="520.687" y2="520.687"/><polygon fill="#181818" points="366.5,516.687,376.5,520.687,366.5,524.687,370.5,520.687" style="stroke:#181818;stroke-width:1.0;"/><line style="stroke:#181818;stroke-width:1.0;" x1="250" x2="250" y1="591.0581" y2="601.0581"/><line style="stroke:#181818;stroke-width:1.0;" x1="250" x2="412.5" y1="601.0581" y2="601.0581"/><polygon fill="#181818" points="408.5,505.187,412.5,495.187,416.5,505.187,412.5,501.187" style="stroke:#181818;stroke-width:1.0;"/><line style="stroke:#181818;stroke-width:1.0;" x1="412.5" x2="412.5" y1="368.4136" y2="601.0581"/><line style="stroke:#181818;stroke-width:1.0;" x1="412.5" x2="266" y1="368.4136" y2="368.4136"/><polygon fill="#181818" points="276,364.4136,266,368.4136,276,372.4136,272,368.4136" style="stroke:#181818;stroke-width:1.0;"/><line style="stroke:#181818;stroke-width:1.0;" x1="250" x2="250" y1="485.187" y2="508.687"/><polygon fill="#181818" points="246,498.687,250,508.687,254,498.687,250,502.687" style="stroke:#181818;stroke-width:1.0;"/><line style="stroke:#181818;stroke-width:1.0;" x1="85" x2="75" y1="429.2183" y2="429.2183"/><line style="stroke:#181818;stroke-width:1.0;" x1="75" x2="75" y1="429.2183" y2="451.2183"/><polygon fill="#181818" points="71,441.2183,75,451.2183,79,441.2183,75,445.2183" style="stroke:#181818;stroke-width:1.0;"/><line style="stroke:#181818;stroke-width:1.0;" x1="240" x2="250" y1="429.2183" y2="429.2183"/><line style="stroke:#181818;stroke-width:1.0;" x1="250" x2="250" y1="429.2183" y2="451.2183"/><polygon fill="#181818" points="246,441.2183,250,451.2183,254,441.2183,250,445.2183" style="stroke:#181818;stroke-width:1.0;"/><line style="stroke:#181818;stroke-width:1.0;" x1="162.5" x2="162.5" y1="380.4136" y2="417.2183"/><polygon fill="#181818" points="158.5,407.2183,162.5,417.2183,166.5,407.2183,162.5,411.2183" style="stroke:#181818;stroke-width:1.0;"/><line style="stroke:#181818;stroke-width:1.0;" x1="59" x2="24" y1="368.4136" y2="368.4136"/><line style="stroke:#181818;stroke-width:1.0;" x1="24" x2="24" y1="368.4136" y2="404.4136"/><polygon fill="#181818" points="20,394.4136,24,404.4136,28,394.4136,24,398.4136" style="stroke:#181818;stroke-width:1.0;"/><line style="stroke:#181818;stroke-width:1.0;" x1="162.5" x2="162.5" y1="336.4136" y2="356.4136"/><polygon fill="#181818" points="158.5,346.4136,162.5,356.4136,166.5,346.4136,162.5,350.4136" style="stroke:#181818;stroke-width:1.0;"/><!--SRC=[PP0nJyGm38Nt_eetjWCJJ7S3Gc9XXLiOG-Do5hauIYnE_VSuRQ-5aY6sdEVlELRMG7XJIbgWWXJSY3iyzShVh2EUsNrcTscAkgmDCYLo5d5mtkETGf0hJl95yNWhlf9VAxCSrpERIUioGSzazpt6kLMhi41YVS27kEmVEt116wL354KxKkcQttx6NO0l1Qpe9KRgzG63vB_S3MN3WOUfOpMonaiAf6GoAyQRLJq7PJhEQL59DQDGQ6LjVrrK2tm_JhPbhBFiJJRsFpfs7vuaqVFGR8c5PGyJih9-0000]--></g></svg>