<?xml version="1.0" encoding="us-ascii" standalone="no"?><svg xmlns="http://www.w3.org/2000/svg" xmlns:xlink="http://www.w3.org/1999/xlink" contentStyleType="text/css" height="757px" preserveAspectRatio="none" style="width:806px;height:757px;background:#FFFFFF;" version="1.1" viewBox="0 0 806 757" width="806px" zoomAndPan="magnify"><defs/><g><text fill="#000000" font-family="sans-serif" font-size="14" font-weight="bold" lengthAdjust="spacing" textLength="88" x="352.25" y="22.9951">Vocabulary</text><!--class Connect4--><g id="elem_Connect4"><rect codeLine="2" fill="#F1F1F1" height="48" id="Connect4" rx="2.5" ry="2.5" style="stroke:#181818;stroke-width:0.5;" width="100" x="387.5" y="44.2969"/><ellipse cx="402.5" cy="60.2969" fill="#ADD1B2" rx="11" ry="11" style="stroke:#181818;stroke-width:1.0;"/><path d="M405.4688,65.9375 Q404.8906,66.2344 404.25,66.375 Q403.6094,66.5313 402.9063,66.5313 Q400.4063,66.5313 399.0781,64.8906 Q397.7656,63.2344 397.7656,60.1094 Q397.7656,56.9844 399.0781,55.3281 Q400.4063,53.6719 402.9063,53.6719 Q403.6094,53.6719 404.25,53.8281 Q404.9063,53.9844 405.4688,54.2813 L405.4688,57 Q404.8438,56.4219 404.25,56.1563 Q403.6563,55.875 403.0313,55.875 Q401.6875,55.875 401,56.9531 Q400.3125,58.0156 400.3125,60.1094 Q400.3125,62.2031 401,63.2813 Q401.6875,64.3438 403.0313,64.3438 Q403.6563,64.3438 404.25,64.0781 Q404.8438,63.7969 405.4688,63.2188 L405.4688,65.9375 Z " fill="#000000"/><text fill="#000000" font-family="sans-serif" font-size="14" lengthAdjust="spacing" textLength="68" x="416.5" y="65.1436">Connect4</text><line style="stroke:#181818;stroke-width:0.5;" x1="388.5" x2="486.5" y1="76.2969" y2="76.2969"/><line style="stroke:#181818;stroke-width:0.5;" x1="388.5" x2="486.5" y1="84.2969" y2="84.2969"/></g><!--class Player--><g id="elem_Player"><rect codeLine="3" fill="#F1F1F1" height="48" id="Player" rx="2.5" ry="2.5" style="stroke:#181818;stroke-width:0.5;" width="73" x="358" y="278.2969"/><ellipse cx="373" cy="294.2969" fill="#ADD1B2" rx="11" ry="11" style="stroke:#181818;stroke-width:1.0;"/><path d="M375.9688,299.9375 Q375.3906,300.2344 374.75,300.375 Q374.1094,300.5313 373.4063,300.5313 Q370.9063,300.5313 369.5781,298.8906 Q368.2656,297.2344 368.2656,294.1094 Q368.2656,290.9844 369.5781,289.3281 Q370.9063,287.6719 373.4063,287.6719 Q374.1094,287.6719 374.75,287.8281 Q375.4063,287.9844 375.9688,288.2813 L375.9688,291 Q375.3438,290.4219 374.75,290.1563 Q374.1563,289.875 373.5313,289.875 Q372.1875,289.875 371.5,290.9531 Q370.8125,292.0156 370.8125,294.1094 Q370.8125,296.2031 371.5,297.2813 Q372.1875,298.3438 373.5313,298.3438 Q374.1563,298.3438 374.75,298.0781 Q375.3438,297.7969 375.9688,297.2188 L375.9688,299.9375 Z " fill="#000000"/><text fill="#000000" font-family="sans-serif" font-size="14" lengthAdjust="spacing" textLength="41" x="387" y="299.1436">Player</text><line style="stroke:#181818;stroke-width:0.5;" x1="359" x2="430" y1="310.2969" y2="310.2969"/><line style="stroke:#181818;stroke-width:0.5;" x1="359" x2="430" y1="318.2969" y2="318.2969"/></g><!--class Board--><g id="elem_Board"><rect codeLine="4" fill="#F1F1F1" height="48" id="Board" rx="2.5" ry="2.5" style="stroke:#181818;stroke-width:0.5;" width="73" x="111" y="411.7369"/><ellipse cx="126" cy="427.7369" fill="#ADD1B2" rx="11" ry="11" style="stroke:#181818;stroke-width:1.0;"/><path d="M128.9688,433.3775 Q128.3906,433.6744 127.75,433.815 Q127.1094,433.9713 126.4063,433.9713 Q123.9063,433.9713 122.5781,432.3306 Q121.2656,430.6744 121.2656,427.5494 Q121.2656,424.4244 122.5781,422.7681 Q123.9063,421.1119 126.4063,421.1119 Q127.1094,421.1119 127.75,421.2681 Q128.4063,421.4244 128.9688,421.7213 L128.9688,424.44 Q128.3438,423.8619 127.75,423.5963 Q127.1563,423.315 126.5313,423.315 Q125.1875,423.315 124.5,424.3931 Q123.8125,425.4556 123.8125,427.5494 Q123.8125,429.6431 124.5,430.7213 Q125.1875,431.7838 126.5313,431.7838 Q127.1563,431.7838 127.75,431.5181 Q128.3438,431.2369 128.9688,430.6588 L128.9688,433.3775 Z " fill="#000000"/><text fill="#000000" font-family="sans-serif" font-size="14" lengthAdjust="spacing" textLength="41" x="140" y="432.5836">Board</text><line style="stroke:#181818;stroke-width:0.5;" x1="112" x2="183" y1="443.7369" y2="443.7369"/><line style="stroke:#181818;stroke-width:0.5;" x1="112" x2="183" y1="451.7369" y2="451.7369"/></g><!--class Token--><g id="elem_Token"><rect codeLine="5" fill="#F1F1F1" height="48" id="Token" rx="2.5" ry="2.5" style="stroke:#181818;stroke-width:0.5;" width="76" x="359.5" y="561.1869"/><ellipse cx="374.5" cy="577.1869" fill="#ADD1B2" rx="11" ry="11" style="stroke:#181818;stroke-width:1.0;"/><path d="M377.4688,582.8275 Q376.8906,583.1244 376.25,583.265 Q375.6094,583.4213 374.9063,583.4213 Q372.4063,583.4213 371.0781,581.7806 Q369.7656,580.1244 369.7656,576.9994 Q369.7656,573.8744 371.0781,572.2181 Q372.4063,570.5619 374.9063,570.5619 Q375.6094,570.5619 376.25,570.7181 Q376.9063,570.8744 377.4688,571.1713 L377.4688,573.89 Q376.8438,573.3119 376.25,573.0463 Q375.6563,572.765 375.0313,572.765 Q373.6875,572.765 373,573.8431 Q372.3125,574.9056 372.3125,576.9994 Q372.3125,579.0931 373,580.1713 Q373.6875,581.2338 375.0313,581.2338 Q375.6563,581.2338 376.25,580.9681 Q376.8438,580.6869 377.4688,580.1088 L377.4688,582.8275 Z " fill="#000000"/><text fill="#000000" font-family="sans-serif" font-size="14" lengthAdjust="spacing" textLength="44" x="388.5" y="582.0336">Token</text><line style="stroke:#181818;stroke-width:0.5;" x1="360.5" x2="434.5" y1="593.1869" y2="593.1869"/><line style="stroke:#181818;stroke-width:0.5;" x1="360.5" x2="434.5" y1="601.1869" y2="601.1869"/></g><!--class Row--><g id="elem_Row"><rect codeLine="6" fill="#F1F1F1" height="48" id="Row" rx="2.5" ry="2.5" style="stroke:#181818;stroke-width:0.5;" width="62" x="133.5" y="561.1869"/><ellipse cx="148.5" cy="577.1869" fill="#ADD1B2" rx="11" ry="11" style="stroke:#181818;stroke-width:1.0;"/><path d="M151.4688,582.8275 Q150.8906,583.1244 150.25,583.265 Q149.6094,583.4213 148.9063,583.4213 Q146.4063,583.4213 145.0781,581.7806 Q143.7656,580.1244 143.7656,576.9994 Q143.7656,573.8744 145.0781,572.2181 Q146.4063,570.5619 148.9063,570.5619 Q149.6094,570.5619 150.25,570.7181 Q150.9063,570.8744 151.4688,571.1713 L151.4688,573.89 Q150.8438,573.3119 150.25,573.0463 Q149.6563,572.765 149.0313,572.765 Q147.6875,572.765 147,573.8431 Q146.3125,574.9056 146.3125,576.9994 Q146.3125,579.0931 147,580.1713 Q147.6875,581.2338 149.0313,581.2338 Q149.6563,581.2338 150.25,580.9681 Q150.8438,580.6869 151.4688,580.1088 L151.4688,582.8275 Z " fill="#000000"/><text fill="#000000" font-family="sans-serif" font-size="14" lengthAdjust="spacing" textLength="30" x="162.5" y="582.0336">Row</text><line style="stroke:#181818;stroke-width:0.5;" x1="134.5" x2="194.5" y1="593.1869" y2="593.1869"/><line style="stroke:#181818;stroke-width:0.5;" x1="134.5" x2="194.5" y1="601.1869" y2="601.1869"/></g><!--class Column--><g id="elem_Column"><rect codeLine="7" fill="#F1F1F1" height="48" id="Column" rx="2.5" ry="2.5" style="stroke:#181818;stroke-width:0.5;" width="85" x="7" y="561.1869"/><ellipse cx="22" cy="577.1869" fill="#ADD1B2" rx="11" ry="11" style="stroke:#181818;stroke-width:1.0;"/><path d="M24.9688,582.8275 Q24.3906,583.1244 23.75,583.265 Q23.1094,583.4213 22.4063,583.4213 Q19.9063,583.4213 18.5781,581.7806 Q17.2656,580.1244 17.2656,576.9994 Q17.2656,573.8744 18.5781,572.2181 Q19.9063,570.5619 22.4063,570.5619 Q23.1094,570.5619 23.75,570.7181 Q24.4063,570.8744 24.9688,571.1713 L24.9688,573.89 Q24.3438,573.3119 23.75,573.0463 Q23.1563,572.765 22.5313,572.765 Q21.1875,572.765 20.5,573.8431 Q19.8125,574.9056 19.8125,576.9994 Q19.8125,579.0931 20.5,580.1713 Q21.1875,581.2338 22.5313,581.2338 Q23.1563,581.2338 23.75,580.9681 Q24.3438,580.6869 24.9688,580.1088 L24.9688,582.8275 Z " fill="#000000"/><text fill="#000000" font-family="sans-serif" font-size="14" lengthAdjust="spacing" textLength="53" x="36" y="582.0336">Column</text><line style="stroke:#181818;stroke-width:0.5;" x1="8" x2="91" y1="593.1869" y2="593.1869"/><line style="stroke:#181818;stroke-width:0.5;" x1="8" x2="91" y1="601.1869" y2="601.1869"/></g><!--class Turn--><g id="elem_Turn"><rect codeLine="8" fill="#F1F1F1" height="48" id="Turn" rx="2.5" ry="2.5" style="stroke:#181818;stroke-width:0.5;" width="64" x="342.5" y="153.2969"/><ellipse cx="357.5" cy="169.2969" fill="#ADD1B2" rx="11" ry="11" style="stroke:#181818;stroke-width:1.0;"/><path d="M360.4688,174.9375 Q359.8906,175.2344 359.25,175.375 Q358.6094,175.5313 357.9063,175.5313 Q355.4063,175.5313 354.0781,173.8906 Q352.7656,172.2344 352.7656,169.1094 Q352.7656,165.9844 354.0781,164.3281 Q355.4063,162.6719 357.9063,162.6719 Q358.6094,162.6719 359.25,162.8281 Q359.9063,162.9844 360.4688,163.2813 L360.4688,166 Q359.8438,165.4219 359.25,165.1563 Q358.6563,164.875 358.0313,164.875 Q356.6875,164.875 356,165.9531 Q355.3125,167.0156 355.3125,169.1094 Q355.3125,171.2031 356,172.2813 Q356.6875,173.3438 358.0313,173.3438 Q358.6563,173.3438 359.25,173.0781 Q359.8438,172.7969 360.4688,172.2188 L360.4688,174.9375 Z " fill="#000000"/><text fill="#000000" font-family="sans-serif" font-size="14" lengthAdjust="spacing" textLength="32" x="371.5" y="174.1436">Turn</text><line style="stroke:#181818;stroke-width:0.5;" x1="343.5" x2="405.5" y1="185.2969" y2="185.2969"/><line style="stroke:#181818;stroke-width:0.5;" x1="343.5" x2="405.5" y1="193.2969" y2="193.2969"/></g><!--class Aggregation--><g id="elem_Aggregation"><rect codeLine="9" fill="#F1F1F1" height="48" id="Aggregation" rx="2.5" ry="2.5" style="stroke:#181818;stroke-width:0.5;" width="116" x="223.5" y="411.7369"/><ellipse cx="238.5" cy="427.7369" fill="#ADD1B2" rx="11" ry="11" style="stroke:#181818;stroke-width:1.0;"/><path d="M241.4688,433.3775 Q240.8906,433.6744 240.25,433.815 Q239.6094,433.9713 238.9063,433.9713 Q236.4063,433.9713 235.0781,432.3306 Q233.7656,430.6744 233.7656,427.5494 Q233.7656,424.4244 235.0781,422.7681 Q236.4063,421.1119 238.9063,421.1119 Q239.6094,421.1119 240.25,421.2681 Q240.9063,421.4244 241.4688,421.7213 L241.4688,424.44 Q240.8438,423.8619 240.25,423.5963 Q239.6563,423.315 239.0313,423.315 Q237.6875,423.315 237,424.3931 Q236.3125,425.4556 236.3125,427.5494 Q236.3125,429.6431 237,430.7213 Q237.6875,431.7838 239.0313,431.7838 Q239.6563,431.7838 240.25,431.5181 Q240.8438,431.2369 241.4688,430.6588 L241.4688,433.3775 Z " fill="#000000"/><text fill="#000000" font-family="sans-serif" font-size="14" lengthAdjust="spacing" textLength="84" x="252.5" y="432.5836">Aggregation</text><line style="stroke:#181818;stroke-width:0.5;" x1="224.5" x2="338.5" y1="443.7369" y2="443.7369"/><line style="stroke:#181818;stroke-width:0.5;" x1="224.5" x2="338.5" y1="451.7369" y2="451.7369"/></g><!--class Color--><g id="elem_Color"><rect codeLine="10" fill="#F1F1F1" height="80.5938" id="Color" rx="2.5" ry="2.5" style="stroke:#181818;stroke-width:0.5;" width="68" x="363.5" y="670.1869"/><ellipse cx="378.5" cy="686.1869" fill="#EB937F" rx="11" ry="11" style="stroke:#181818;stroke-width:1.0;"/><path d="M382.6094,692.1869 L374.8906,692.1869 L374.8906,679.7963 L382.6094,679.7963 L382.6094,681.9525 L377.3438,681.9525 L377.3438,684.6244 L382.1094,684.6244 L382.1094,686.7806 L377.3438,686.7806 L377.3438,690.0306 L382.6094,690.0306 L382.6094,692.1869 Z " fill="#000000"/><text fill="#000000" font-family="sans-serif" font-size="14" lengthAdjust="spacing" textLength="36" x="392.5" y="691.0336">Color</text><line style="stroke:#181818;stroke-width:0.5;" x1="364.5" x2="430.5" y1="702.1869" y2="702.1869"/><text fill="#000000" font-family="sans-serif" font-size="14" lengthAdjust="spacing" textLength="28" x="369.5" y="719.182">Red</text><text fill="#000000" font-family="sans-serif" font-size="14" lengthAdjust="spacing" textLength="44" x="369.5" y="735.4789">Yellow</text><line style="stroke:#181818;stroke-width:0.5;" x1="364.5" x2="430.5" y1="742.7806" y2="742.7806"/></g><!--class Goal--><g id="elem_Goal"><rect codeLine="14" fill="#F1F1F1" height="96.8906" id="Goal" rx="2.5" ry="2.5" style="stroke:#181818;stroke-width:0.5;" width="81" x="448" y="387.2969"/><ellipse cx="471.1" cy="403.2969" fill="#EB937F" rx="11" ry="11" style="stroke:#181818;stroke-width:1.0;"/><path d="M475.2094,409.2969 L467.4906,409.2969 L467.4906,396.9063 L475.2094,396.9063 L475.2094,399.0625 L469.9438,399.0625 L469.9438,401.7344 L474.7094,401.7344 L474.7094,403.8906 L469.9438,403.8906 L469.9438,407.1406 L475.2094,407.1406 L475.2094,409.2969 Z " fill="#000000"/><text fill="#000000" font-family="sans-serif" font-size="14" lengthAdjust="spacing" textLength="31" x="486.9" y="408.1436">Goal</text><line style="stroke:#181818;stroke-width:0.5;" x1="449" x2="528" y1="419.2969" y2="419.2969"/><text fill="#000000" font-family="sans-serif" font-size="14" lengthAdjust="spacing" textLength="69" x="454" y="436.292">Horizontal</text><text fill="#000000" font-family="sans-serif" font-size="14" lengthAdjust="spacing" textLength="50" x="454" y="452.5889">Vertical</text><text fill="#000000" font-family="sans-serif" font-size="14" lengthAdjust="spacing" textLength="60" x="454" y="468.8857">Diagonal</text><line style="stroke:#181818;stroke-width:0.5;" x1="449" x2="528" y1="476.1875" y2="476.1875"/></g><g id="elem_GMN12"><path d="M564.5,415.6069 L564.5,431.7369 L529.27,435.7369 L564.5,439.7369 L564.5,455.8725 A0,0 0 0 0 564.5,455.8725 L746.5,455.8725 A0,0 0 0 0 746.5,455.8725 L746.5,425.6069 L736.5,415.6069 L564.5,415.6069 A0,0 0 0 0 564.5,415.6069 " fill="#FEFFDD" style="stroke:#181818;stroke-width:0.5;"/><path d="M736.5,415.6069 L736.5,425.6069 L746.5,425.6069 L736.5,415.6069 " fill="#FEFFDD" style="stroke:#181818;stroke-width:0.5;"/><text fill="#000000" font-family="sans-serif" font-size="13" lengthAdjust="spacing" textLength="140" x="570.5" y="432.6738">Align four consecutive</text><text fill="#000000" font-family="sans-serif" font-size="13" lengthAdjust="spacing" textLength="161" x="570.5" y="447.8066">pieces of the same color.</text></g><!--reverse link Connect4 to Player--><g id="link_Connect4_Player"><path codeLine="21" d="M443.3355,104.5592 C448.4755,139.5192 452.82,195.0969 434.5,248.2969 C430.82,258.9769 424.1,269.2469 417.2,277.8569 " fill="none" id="Connect4-backto-Player" style="stroke:#181818;stroke-width:1.0;"/><polygon fill="#181818" points="441.59,92.6869,438.5053,99.2049,443.3355,104.5592,446.4202,98.0412,441.59,92.6869" style="stroke:#181818;stroke-width:1.0;"/><text fill="#000000" font-family="sans-serif" font-size="13" lengthAdjust="spacing" textLength="8" x="413.7581" y="267.1546">2</text></g><!--reverse link Connect4 to Board--><g id="link_Connect4_Board"><path codeLine="22" d="M389.0511,99.2616 C365.7511,114.6216 346.41,129.6069 324.5,153.2969 C246.7,237.4069 183.13,360.2869 158.5,411.2469 " fill="none" id="Connect4-backto-Board" style="stroke:#181818;stroke-width:1.0;"/><polygon fill="#181818" points="399.07,92.6569,391.859,92.6196,389.0511,99.2616,396.2621,99.2989,399.07,92.6569" style="stroke:#181818;stroke-width:1.0;"/></g><!--reverse link Connect4 to Token--><g id="link_Connect4_Token"><path codeLine="23" d="M499.7712,74.773 C599.2412,84.653 799.5,112.0669 799.5,176.2969 C799.5,176.2969 799.5,176.2969 799.5,436.7369 C799.5,513.7669 536.03,562.7169 435.68,578.5569 " fill="none" id="Connect4-backto-Token" style="stroke:#181818;stroke-width:1.0;"/><polygon fill="#181818" points="487.83,73.5869,493.4053,78.1603,499.7712,74.773,494.196,70.1995,487.83,73.5869" style="stroke:#181818;stroke-width:1.0;"/><text fill="#000000" font-family="sans-serif" font-size="13" lengthAdjust="spacing" textLength="31" x="443.5643" y="573.5582">2x21</text></g><!--reverse link Connect4 to Turn--><g id="link_Connect4_Turn"><path codeLine="24" d="M417.5832,103.1186 C407.0832,120.9586 398.79,135.0369 388.29,152.8669 " fill="none" id="Connect4-backto-Turn" style="stroke:#181818;stroke-width:1.0;"/><polygon fill="#181818" points="423.67,92.7769,417.1794,95.9188,417.5832,103.1186,424.0739,99.9767,423.67,92.7769" style="stroke:#181818;stroke-width:1.0;"/></g><!--reverse link Board to Row--><g id="link_Board_Row"><path codeLine="26" d="M151.5673,472.0176 C154.7573,499.6276 158.64,533.3669 161.82,560.9269 " fill="none" id="Board-backto-Row" style="stroke:#181818;stroke-width:1.0;"/><polygon fill="#181818" points="150.19,460.0969,146.9051,466.5163,151.5673,472.0176,154.8522,465.5981,150.19,460.0969" style="stroke:#181818;stroke-width:1.0;"/><text fill="#000000" font-family="sans-serif" font-size="13" lengthAdjust="spacing" textLength="8" x="152.1917" y="550.2685">6</text></g><!--reverse link Board to Column--><g id="link_Board_Column"><path codeLine="27" d="M99.9723,457.4542 C74.8923,470.0842 54.36,485.2469 39.5,514.1869 C32.1,528.5969 34.99,546.7569 39.52,560.9669 " fill="none" id="Board-backto-Column" style="stroke:#181818;stroke-width:1.0;"/><polygon fill="#181818" points="110.69,452.0569,103.532,451.183,99.9723,457.4542,107.1303,458.3281,110.69,452.0569" style="stroke:#181818;stroke-width:1.0;"/><text fill="#000000" font-family="sans-serif" font-size="13" lengthAdjust="spacing" textLength="8" x="28.1124" y="550.3182">7</text></g><!--reverse link Board to Token--><g id="link_Board_Token"><path codeLine="28" d="M181.7142,467.8021 C191.7242,476.2421 194.53,477.5769 206.5,484.1869 C242.3,503.9569 256.89,495.9469 293.5,514.1869 C319.8,527.2869 347.28,546.0369 367.39,560.8369 " fill="none" id="Board-backto-Token" style="stroke:#181818;stroke-width:1.0;"/><polygon fill="none" points="172.54,460.0669,174.5487,466.9926,181.7142,467.8021,179.7055,460.8765,172.54,460.0669" style="stroke:#181818;stroke-width:1.0;"/><text fill="#000000" font-family="sans-serif" font-size="13" lengthAdjust="spacing" textLength="44" x="310.6882" y="550.1565">0-2x21</text></g><!--reverse link Player to Goal--><g id="link_Player_Goal"><path codeLine="30" d="M418.2909,336.5573 C430.2209,353.2373 439.68,366.4669 454.32,386.9469 " fill="none" id="Player-backto-Goal" style="stroke:#181818;stroke-width:1.0;"/><polygon fill="#181818" points="411.31,326.7969,411.547,334.0041,418.2909,336.5573,418.054,329.3501,411.31,326.7969" style="stroke:#181818;stroke-width:1.0;"/></g><!--link Player to Token--><g id="link_Player_Token"><path codeLine="31" d="M394.75,326.7569 C395.32,379.7669 396.6263,502.2272 397.1863,554.9872 " fill="none" id="Player-to-Token" style="stroke:#181818;stroke-width:1.0;stroke-dasharray:7.0,7.0;"/><polygon fill="#181818" points="397.25,560.9869,401.1543,551.9449,397.1969,555.9872,393.1547,552.0298,397.25,560.9869" style="stroke:#181818;stroke-width:1.0;"/><text fill="#000000" font-family="sans-serif" font-size="13" lengthAdjust="spacing" textLength="16" x="379.1359" y="549.9477">21</text></g><!--link Player to Aggregation--><g id="link_Player_Aggregation"><path codeLine="32" d="M374.3,326.7969 C353.73,350.7169 325.941,383.0367 305.441,406.8867 " fill="none" id="Player-to-Aggregation" style="stroke:#181818;stroke-width:1.0;stroke-dasharray:7.0,7.0;"/><polygon fill="#181818" points="301.53,411.4369,310.43,407.219,304.7892,407.6451,304.3631,402.0043,301.53,411.4369" style="stroke:#181818;stroke-width:1.0;"/></g><!--link Token to Color--><g id="link_Token_Color"><path codeLine="34" d="M397.5,609.6669 C397.5,626.7169 397.5,644.1769 397.5,664.0769 " fill="none" id="Token-to-Color" style="stroke:#181818;stroke-width:1.0;"/><polygon fill="#181818" points="397.5,670.0769,401.5,661.0769,397.5,665.0769,393.5,661.0769,397.5,670.0769" style="stroke:#181818;stroke-width:1.0;"/></g><!--link Turn to Player--><g id="link_Turn_Player"><path codeLine="36" d="M378.31,201.7169 C381.87,223.6069 386.1856,250.1749 389.7456,272.0349 " fill="none" id="Turn-to-Player" style="stroke:#181818;stroke-width:1.0;"/><polygon fill="#181818" points="390.71,277.9569,393.2114,268.431,389.9063,273.0219,385.3154,269.7168,390.71,277.9569" style="stroke:#181818;stroke-width:1.0;"/><text fill="#000000" font-family="sans-serif" font-size="13" lengthAdjust="spacing" textLength="38" x="387.5" y="244.3638">active</text></g><!--link Aggregation to Column--><g id="link_Aggregation_Column"><path codeLine="38" d="M244.74,460.0969 C201.43,487.6269 134.9438,529.8785 91.5338,557.4685 " fill="none" id="Aggregation-to-Column" style="stroke:#181818;stroke-width:1.0;"/><polygon fill="#181818" points="86.47,560.6869,96.2113,559.2352,90.6898,558.0049,91.9201,552.4834,86.47,560.6869" style="stroke:#181818;stroke-width:1.0;"/><text fill="#000000" font-family="sans-serif" font-size="13" lengthAdjust="spacing" textLength="38" x="160.5" y="527.2538">select</text></g><!--link Aggregation to Row--><g id="link_Aggregation_Row"><path codeLine="39" d="M262.96,460.0969 C241.05,487.7069 208.5496,528.6669 186.6796,556.2269 " fill="none" id="Aggregation-to-Row" style="stroke:#181818;stroke-width:1.0;"/><polygon fill="#181818" points="182.95,560.9269,191.6778,556.3633,186.058,557.0102,185.4111,551.3905,182.95,560.9269" style="stroke:#181818;stroke-width:1.0;"/><text fill="#000000" font-family="sans-serif" font-size="13" lengthAdjust="spacing" textLength="94" x="220.5" y="527.2538">last row empty</text></g><!--link Aggregation to Token--><g id="link_Aggregation_Token"><path codeLine="40" d="M299.88,460.0969 C321.6,487.7069 353.8093,528.6519 375.4993,556.2119 " fill="none" id="Aggregation-to-Token" style="stroke:#181818;stroke-width:1.0;stroke-dasharray:7.0,7.0;"/><polygon fill="#181818" points="379.21,560.9269,376.7872,551.3807,376.1177,556.9978,370.5006,556.3283,379.21,560.9269" style="stroke:#181818;stroke-width:1.0;"/></g><!--link Goal to Token--><g id="link_Goal_Token"><path codeLine="42" d="M452.649,494.8195 C436.879,520.3795 427.6211,535.381 415.0311,555.781 " fill="none" id="Goal-Token" style="stroke:#181818;stroke-width:1.0;"/><polygon fill="#181818" points="458.95,484.6069,452.3953,487.6129,452.649,494.8195,459.2037,491.8135,458.95,484.6069" style="stroke:#181818;stroke-width:1.0;"/><polygon fill="#181818" points="411.88,560.8869,420.0107,555.3288,414.506,556.632,413.2028,551.1273,411.88,560.8869" style="stroke:#181818;stroke-width:1.0;"/><text fill="#000000" font-family="sans-serif" font-size="13" lengthAdjust="spacing" textLength="8" x="406.4101" y="550.2187">4</text></g><!--SRC=[PL5DImCn4BtdLmnxBEoYfIZqKAWAUfHI2eANc4wtmMocPBFgAltlpkQZxEebl7bl9fdtuhKt23jIygqpqlL26TcsS4_MelABL3uRsQDBnHr9jqzuI-ze4zxGvsNQT4scjvtBS5tN3clfDLc1jck6HdBm8m0skEVp1OtXMyvHVIHfWlX4Jd-JzT9miKFdjGhmGSkQBCEpiEGHdAwFVWbhesiB1-eSAB8jgixh3tor9uqAMw03-2D2AnjadHUeXCX-OLQMKCoBx7Z2H-D_Mh_crqMAOQ84soACnCwR8YGqOcwBd5GaQI2lod1bl574DKBxa4Qkgsh5JryU7h7ZY4LGeInNCMWcUAbG9t-m1Ac6S8GO3UO9temRMZHiwf_ENbZaR_NW669pylsaQTWckGWVEHkcYaNQ-HS0]--></g></svg>